<mxfile host="app.diagrams.net" agent="Mozilla/5.0 (Windows NT 10.0; Win64; x64) AppleWebKit/537.36 (KHTML, like Gecko) Chrome/130.0.0.0 Safari/537.36" version="25.0.1">
  <diagram name="第 1 页" id="9QqyYzKHKshEXIBvejCa">
    <mxGraphModel dx="892" dy="673" grid="1" gridSize="10" guides="1" tooltips="1" connect="1" arrows="1" fold="1" page="1" pageScale="1" pageWidth="827" pageHeight="1169" math="0" shadow="0">
      <root>
        <mxCell id="0" />
        <mxCell id="1" parent="0" />
        <mxCell id="yxVw35tc9R7OeuOc3ruJ-2" value="8&#x9;" style="text;align=center;verticalAlign=middle;rounded=0;horizontal=1;labelPosition=center;verticalLabelPosition=middle;html=1;fillColor=none;fontColor=default;labelBackgroundColor=none;labelBorderColor=none;textShadow=0;" vertex="1" parent="1">
          <mxGeometry x="235" y="155" width="20" height="30" as="geometry" />
        </mxCell>
        <mxCell id="yxVw35tc9R7OeuOc3ruJ-3" value="5&#x9;" style="text;align=center;verticalAlign=middle;rounded=0;horizontal=1;labelPosition=center;verticalLabelPosition=middle;html=1;fillColor=none;fontColor=#66B2FF;labelBackgroundColor=none;labelBorderColor=none;textShadow=0;" vertex="1" parent="1">
          <mxGeometry x="265" y="155" width="20" height="30" as="geometry" />
        </mxCell>
        <mxCell id="yxVw35tc9R7OeuOc3ruJ-4" value="7&#x9;" style="text;align=center;verticalAlign=middle;rounded=0;horizontal=1;labelPosition=center;verticalLabelPosition=middle;html=1;fillColor=none;fontColor=default;labelBackgroundColor=none;labelBorderColor=none;textShadow=0;" vertex="1" parent="1">
          <mxGeometry x="295" y="155" width="20" height="30" as="geometry" />
        </mxCell>
        <mxCell id="yxVw35tc9R7OeuOc3ruJ-5" value="5&#x9;" style="text;align=center;verticalAlign=middle;rounded=0;horizontal=1;labelPosition=center;verticalLabelPosition=middle;html=1;fillColor=none;fontColor=#FF9999;labelBackgroundColor=none;labelBorderColor=none;textShadow=0;" vertex="1" parent="1">
          <mxGeometry x="325" y="155" width="20" height="30" as="geometry" />
        </mxCell>
        <mxCell id="yxVw35tc9R7OeuOc3ruJ-11" value="9&#x9;" style="text;align=center;verticalAlign=middle;rounded=0;horizontal=1;labelPosition=center;verticalLabelPosition=middle;html=1;fillColor=none;fontColor=default;labelBackgroundColor=none;labelBorderColor=none;textShadow=0;" vertex="1" parent="1">
          <mxGeometry x="355" y="155" width="20" height="30" as="geometry" />
        </mxCell>
        <mxCell id="yxVw35tc9R7OeuOc3ruJ-12" value="3&#x9;" style="text;align=center;verticalAlign=middle;rounded=0;horizontal=1;labelPosition=center;verticalLabelPosition=middle;html=1;fillColor=none;fontColor=default;labelBackgroundColor=none;labelBorderColor=none;textShadow=0;" vertex="1" parent="1">
          <mxGeometry x="385" y="155" width="20" height="30" as="geometry" />
        </mxCell>
        <mxCell id="yxVw35tc9R7OeuOc3ruJ-29" value="8&#x9;" style="text;align=center;verticalAlign=middle;rounded=0;horizontal=1;labelPosition=center;verticalLabelPosition=middle;html=1;fillColor=none;fontColor=default;labelBackgroundColor=none;labelBorderColor=none;textShadow=0;" vertex="1" parent="1">
          <mxGeometry x="265" y="220" width="20" height="30" as="geometry" />
        </mxCell>
        <mxCell id="yxVw35tc9R7OeuOc3ruJ-30" value="5&#x9;" style="text;align=center;verticalAlign=middle;rounded=0;horizontal=1;labelPosition=center;verticalLabelPosition=middle;html=1;fillColor=none;fontColor=#66B2FF;labelBackgroundColor=none;labelBorderColor=none;textShadow=0;" vertex="1" parent="1">
          <mxGeometry x="235" y="220" width="20" height="30" as="geometry" />
        </mxCell>
        <mxCell id="yxVw35tc9R7OeuOc3ruJ-31" value="7&#x9;" style="text;align=center;verticalAlign=middle;rounded=0;horizontal=1;labelPosition=center;verticalLabelPosition=middle;html=1;fillColor=none;fontColor=default;labelBackgroundColor=none;labelBorderColor=none;textShadow=0;" vertex="1" parent="1">
          <mxGeometry x="295" y="220" width="20" height="30" as="geometry" />
        </mxCell>
        <mxCell id="yxVw35tc9R7OeuOc3ruJ-32" value="5&#x9;" style="text;align=center;verticalAlign=middle;rounded=0;horizontal=1;labelPosition=center;verticalLabelPosition=middle;html=1;fillColor=none;fontColor=#FF9999;labelBackgroundColor=none;labelBorderColor=none;textShadow=0;" vertex="1" parent="1">
          <mxGeometry x="325" y="220" width="20" height="30" as="geometry" />
        </mxCell>
        <mxCell id="yxVw35tc9R7OeuOc3ruJ-33" value="9&#x9;" style="text;align=center;verticalAlign=middle;rounded=0;horizontal=1;labelPosition=center;verticalLabelPosition=middle;html=1;fillColor=none;fontColor=default;labelBackgroundColor=none;labelBorderColor=none;textShadow=0;" vertex="1" parent="1">
          <mxGeometry x="355" y="220" width="20" height="30" as="geometry" />
        </mxCell>
        <mxCell id="yxVw35tc9R7OeuOc3ruJ-34" value="3&#x9;" style="text;align=center;verticalAlign=middle;rounded=0;horizontal=1;labelPosition=center;verticalLabelPosition=middle;html=1;fillColor=none;fontColor=default;labelBackgroundColor=none;labelBorderColor=none;textShadow=0;" vertex="1" parent="1">
          <mxGeometry x="385" y="220" width="20" height="30" as="geometry" />
        </mxCell>
        <mxCell id="yxVw35tc9R7OeuOc3ruJ-39" value="8&#x9;" style="text;align=center;verticalAlign=middle;rounded=0;horizontal=1;labelPosition=center;verticalLabelPosition=middle;html=1;fillColor=none;fontColor=default;labelBackgroundColor=none;labelBorderColor=none;textShadow=0;" vertex="1" parent="1">
          <mxGeometry x="265" y="280" width="20" height="30" as="geometry" />
        </mxCell>
        <mxCell id="yxVw35tc9R7OeuOc3ruJ-40" value="5&#x9;" style="text;align=center;verticalAlign=middle;rounded=0;horizontal=1;labelPosition=center;verticalLabelPosition=middle;html=1;fillColor=none;fontColor=#66B2FF;labelBackgroundColor=none;labelBorderColor=none;textShadow=0;" vertex="1" parent="1">
          <mxGeometry x="385" y="280" width="20" height="30" as="geometry" />
        </mxCell>
        <mxCell id="yxVw35tc9R7OeuOc3ruJ-41" value="7&#x9;" style="text;align=center;verticalAlign=middle;rounded=0;horizontal=1;labelPosition=center;verticalLabelPosition=middle;html=1;fillColor=none;fontColor=default;labelBackgroundColor=none;labelBorderColor=none;textShadow=0;" vertex="1" parent="1">
          <mxGeometry x="295" y="280" width="20" height="30" as="geometry" />
        </mxCell>
        <mxCell id="yxVw35tc9R7OeuOc3ruJ-42" value="5&#x9;" style="text;align=center;verticalAlign=middle;rounded=0;horizontal=1;labelPosition=center;verticalLabelPosition=middle;html=1;fillColor=none;fontColor=#FF9999;labelBackgroundColor=none;labelBorderColor=none;textShadow=0;" vertex="1" parent="1">
          <mxGeometry x="325" y="280" width="20" height="30" as="geometry" />
        </mxCell>
        <mxCell id="yxVw35tc9R7OeuOc3ruJ-43" value="9&#x9;" style="text;align=center;verticalAlign=middle;rounded=0;horizontal=1;labelPosition=center;verticalLabelPosition=middle;html=1;fillColor=none;fontColor=default;labelBackgroundColor=none;labelBorderColor=none;textShadow=0;" vertex="1" parent="1">
          <mxGeometry x="355" y="280" width="20" height="30" as="geometry" />
        </mxCell>
        <mxCell id="yxVw35tc9R7OeuOc3ruJ-44" value="3&#x9;" style="text;align=center;verticalAlign=middle;rounded=0;horizontal=1;labelPosition=center;verticalLabelPosition=middle;html=1;fillColor=none;fontColor=default;labelBackgroundColor=none;labelBorderColor=none;textShadow=0;" vertex="1" parent="1">
          <mxGeometry x="235" y="280" width="20" height="30" as="geometry" />
        </mxCell>
        <mxCell id="yxVw35tc9R7OeuOc3ruJ-49" value="..." style="text;html=1;align=center;verticalAlign=middle;whiteSpace=wrap;rounded=0;textDirection=vertical-rl;fontSize=20;" vertex="1" parent="1">
          <mxGeometry x="295" y="185" width="60" height="30" as="geometry" />
        </mxCell>
        <mxCell id="yxVw35tc9R7OeuOc3ruJ-60" value="..." style="text;html=1;align=center;verticalAlign=middle;whiteSpace=wrap;rounded=0;textDirection=vertical-rl;fontSize=20;" vertex="1" parent="1">
          <mxGeometry x="295" y="250" width="60" height="30" as="geometry" />
        </mxCell>
        <mxCell id="yxVw35tc9R7OeuOc3ruJ-61" value="&lt;font style=&quot;font-size: 20px;&quot;&gt;从左至右，选出一个较小数&lt;/font&gt;" style="text;html=1;align=center;verticalAlign=middle;whiteSpace=wrap;rounded=0;" vertex="1" parent="1">
          <mxGeometry x="460" y="215" width="310" height="30" as="geometry" />
        </mxCell>
        <mxCell id="yxVw35tc9R7OeuOc3ruJ-62" value="" style="endArrow=classic;html=1;rounded=0;" edge="1" parent="1" source="yxVw35tc9R7OeuOc3ruJ-49" target="yxVw35tc9R7OeuOc3ruJ-61">
          <mxGeometry width="50" height="50" relative="1" as="geometry">
            <mxPoint x="330" y="210" as="sourcePoint" />
            <mxPoint x="380" y="160" as="targetPoint" />
          </mxGeometry>
        </mxCell>
        <mxCell id="yxVw35tc9R7OeuOc3ruJ-63" value="可以看出经过，几次对比和交换，两个5的位置已经发生了变化" style="text;html=1;align=center;verticalAlign=middle;whiteSpace=wrap;rounded=0;fontSize=20;" vertex="1" parent="1">
          <mxGeometry x="460" y="320" width="310" height="30" as="geometry" />
        </mxCell>
      </root>
    </mxGraphModel>
  </diagram>
</mxfile>
